<?xml version="1.0" encoding="UTF-8" standalone="no"?>
<svg xmlns="http://www.w3.org/2000/svg" height="104.49973" width="195.40294" version="1.1">
	<style>
	:root {
		--rust-rst-lite: #ccc;
		--rust-rst-dark: #333;
	}
	
	/* colors */
	.rust-rst-logo { fill: var(--rust-rst-dark); stroke: none; fill-rule: evenodd }
	.rust-rst-logo .stroked { stroke: var(--rust-rst-dark) }
	/* with a dark system theme, use: */
	@media (prefers-color-scheme: dark) {
		.rust-rst-logo { fill: var(--rust-rst-lite) }
		.rust-rst-logo .stroked { stroke: var(--rust-rst-lite) }
	}
	/* If this SVG is embedded in a document, use the text color */
	body .rust-rst-logo { fill: currentColor }
	body .rust-rst-logo .stroked { stroke: currentColor }

	/* parts that use stroke */
	.rust-rst-logo .stroked {
		stroke-width: 3;
		stroke-linecap: round;
		stroke-linejoin: round;
	}

	/* can be used to regenerate/change the logo */
	.rust-rst-logo text { 
		display: none;
		font-size: 90.66667175px;
		line-height: 1.25;
		font-family: "OCR-A", OCRA;
	}
	</style>
	<g class="rust-rst-logo">
		<path
			d="M 52.25,4.9804688 C 26.19,4.9804688 4.9804688,26.2 4.9804688,52.25 4.9804688,78.3 26.2,99.519531 52.25,99.519531 78.3,99.519531 99.519531,78.3 99.519531,52.25 99.519531,26.2 78.3,4.9804688 52.25,4.9804688 Z m -0.07031,4.1992187 c 1.68076,0.043529 3.020091,1.4226295 3.019531,3.1093745 0,4.146665 -6.21875,4.146665 -6.21875,0 -7.34e-4,-1.753375 1.446577,-3.1601154 3.199219,-3.1093745 z m -7.029297,5.1210935 4.789062,5.019531 c 1.08,1.13 2.87,1.179844 4,0.08984 l 5.361328,-5.109375 C 70.351003,16.370525 79.931432,23.192597 85.5,32.958984 l -3.669922,8.28125 c -0.63,1.43 0.01945,3.11 1.439453,3.75 l 7.060547,3.128907 c 1.806609,8.8722 -3.653366,24.198569 -10.800779,30.611328 L 72.958984,77.320312 C 71.428984,76.990313 69.919844,77.97 69.589844,79.5 l -1.560547,7.279297 C 57.878136,91.377741 46.226622,91.32258 36.119141,86.628906 l -1.558594,-7.279297 c -0.33,-1.53 -1.831328,-2.509687 -3.361328,-2.179687 l -6.429688,1.380859 C 17.284085,70.513922 13.167601,57.997225 14.199219,47.789062 l 6.701172,-2.978515 c 1.43,-0.64 2.079453,-2.310235 1.439453,-3.740235 L 20.958984,37.958984 18.81585,33.087893 C 23.531492,24.265903 34.944722,15.885966 45.150391,14.300781 Z M 15.099609,37.320312 c 1.682359,0.04871 3.020237,1.426312 3.019532,3.109376 0,4.146664 -6.21875,4.146665 -6.21875,0 -7.34e-4,-1.753377 1.446577,-3.160117 3.199218,-3.109376 z M 89.25,37.458984 c 1.682359,0.04871 3.020236,1.428264 3.019531,3.111328 0,4.146665 -6.21875,4.146666 -6.21875,0 -7.34e-4,-1.753376 1.446578,-3.162069 3.199219,-3.111328 z M 29.150391,81.109375 c 1.682359,0.04871 3.020236,1.428264 3.019531,3.111328 0,4.146665 -6.220703,4.146665 -6.220703,0 -7.34e-4,-1.753376 1.448531,-3.162069 3.201172,-3.111328 z M 75.199219,81.25 c 1.682359,0.04871 3.022189,1.426311 3.021484,3.109375 0,4.146665 -6.220703,4.146665 -6.220703,0 -7.34e-4,-1.753376 1.446578,-3.160116 3.199219,-3.109375 z"
		/>
		<path class="stroked"
			d="m 96.879865,52.249865 a 44.63,44.63 0 0 1 -44.63,44.63 44.63,44.63 0 0 1 -44.6299999,-44.63 44.63,44.63 0 0 1 44.6299999,-44.6299999 44.63,44.63 0 0 1 44.63,44.6299999 z m -0.84,-4.31 6.960005,4.31 -6.960005,4.31 5.980005,5.59 -7.660005,2.87 4.78,6.65 -8.09,1.32 3.4,7.46 -8.19,-0.29 1.88,7.98 -7.98,-1.88 0.29,8.19 -7.46,-3.4 -1.32,8.09 -6.65,-4.78 -2.87,7.660005 -5.59,-5.980005 -4.31,6.960005 -4.31,-6.960005 -5.59,5.980005 -2.87,-7.660005 -6.65,4.78 -1.32,-8.09 -7.46,3.4 0.29,-8.19 -7.98,1.88 1.88,-7.98 -8.19,0.29 3.4,-7.46 -8.0899999,-1.32 4.7799999,-6.65 -7.6599999,-2.87 5.98,-5.59 -6.96,-4.31 6.96,-4.31 -5.98,-5.59 7.6599999,-2.87 -4.7799999,-6.65 8.0899999,-1.32 -3.4,-7.46 8.19,0.29 -1.88,-7.98 7.98,1.88 -0.29,-8.19 7.46,3.4 1.32,-8.0899999 6.65,4.7799999 2.87,-7.6599999 5.59,5.98 4.31,-6.96 4.31,6.96 5.59,-5.98 2.87,7.6599999 6.65,-4.7799999 1.32,8.0899999 7.46,-3.4 -0.29,8.19 7.98,-1.88 -1.88,7.98 8.19,-0.29 -3.4,7.46 8.09,1.32 -4.78,6.65 7.660005,2.87 z"
		/>
		<text x="21.311935" y="82.67424">
			<tspan dx="0 7.5999999 -15.63">RST</tspan>
		</text>
		<g>
			<path
				style="font-size:90.66667175px;font-family:OCRA;word-spacing:0px"
				d="M 31.013269,47.132905 V 15.580903 H 46.51727 q 8.160001,0 11.877334,0.09067 3.717334,0 4.170667,0.09067 0.453333,0 1.36,0.272 3.898667,0.906667 6.618667,4.080001 2.72,3.082666 3.173334,7.162667 0.09067,0.544 0.09067,3.989333 -0.09067,3.626667 -0.453333,5.077334 -0.816,3.445333 -3.445334,5.984 -2.538666,2.538667 -5.984,3.445334 -1.36,0.362666 -5.077333,0.453333 h -3.173334 l 8.885334,15.141334 q 8.885334,15.232001 8.885334,15.413334 1.088,2.901334 -1.088,4.714667 -1.269334,1.269334 -3.082667,1.178667 -1.813334,-0.09067 -3.082667,-1.450667 -0.272,-0.272 -0.634667,-0.997333 L 55.402604,62.908906 45.610603,46.226238 h -2.992 -2.992 v 16.410668 q 0,16.501334 -0.09067,16.773334 -0.362666,0.997333 -0.816,1.632 -0.634666,0.816 -1.450666,1.178667 -1.813334,0.816 -3.445334,0.181333 -0.816,-0.272 -1.541333,-0.997333 -0.816,-0.906667 -0.997334,-1.541334 0,-0.09067 -0.09067,-0.09067 -0.181334,-0.544 -0.181334,-16.048001 0,-9.701334 0,-16.592001 z M 61.839938,24.37557 q -0.272,-0.09067 -11.242668,-0.09067 H 39.626603 v 6.618667 6.618667 H 50.59727 q 5.712001,0 8.341334,0 2.629334,-0.09067 2.901334,-0.09067 0.272,-0.09067 0.816,-0.362667 1.450666,-0.725333 1.994667,-2.085333 0.453333,-0.816 0.453333,-4.08 0,-3.264001 -0.453333,-4.170667 -0.816001,-1.632 -2.810667,-2.357334 z"
			/>
			<path
				style="font-size:90.66667175px;font-family:OCRA;word-spacing:0px"
				d="m 111.85777,15.67157 q 0.0907,0 0.816,0 0.72533,0 1.81333,0 1.17867,-0.09067 3.62667,-0.09067 2.53867,0 5.712,0 11.51467,0 12.05867,0.09067 4.08,0.544 6.98133,3.445333 2.81067,2.810667 3.264,6.981334 0.36267,2.72 -1.26933,4.261334 -1.26934,1.178666 -2.992,1.178666 -0.72534,0 -1.17867,-0.09067 -1.088,-0.362667 -1.904,-1.178667 -1.17867,-1.178667 -1.26933,-2.992 0,-0.544 -0.18134,-1.088 -0.45333,-1.269334 -1.81333,-1.722667 l -0.36267,-0.181333 h -11.152 -11.24267 l -0.18133,0.181333 q -0.72533,0.634667 -0.45333,1.36 0.0907,0.09067 16.13867,20.762668 16.13866,20.581334 16.32,20.944001 1.26933,1.994667 1.54133,4.170667 0.45333,3.626667 -1.632,6.709334 -2.08533,2.992 -5.62133,3.898666 -1.36,0.362667 -13.23734,0.362667 -11.424,0 -11.968,-0.09067 -4.08,-0.544 -6.98133,-3.445333 -2.81067,-2.992 -3.264,-6.981334 -0.272,-2.538667 1.17866,-4.08 0.816,-0.906667 1.99467,-1.178667 0.36267,-0.181333 1.088,-0.181333 1.81333,0 2.992,1.178667 1.26933,1.088 1.36,3.082666 l 0.18133,1.088001 q 0.544,1.269333 1.81334,1.722666 l 0.36267,0.181334 h 11.152 11.06133 l 0.272,-0.09067 q 1.088,-0.544 0.544,-1.36 0,-0.272 -16.13867,-20.853335 -16.048,-20.672001 -16.32,-20.944001 -1.54133,-2.448 -1.54133,-5.349333 0,-2.992001 1.632,-5.349334 2.448,-3.808 6.8,-4.352 z"
			/>
			<path
				style="font-size:90.66667175px;font-family:OCRA;word-spacing:0px"
				d="m 152.60827,21.564903 v -5.984 h 21.39734 21.39733 v 5.984 q 0,6.437334 -0.36267,7.253334 -0.544,1.722667 -2.35733,2.448 -0.63467,0.272 -1.632,0.272 -1.17867,0 -1.904,-0.362666 -1.45067,-0.816 -2.176,-2.357334 -0.272,-1.088 -0.272,-2.901333 v -1.632 h -4.17067 -4.26133 v 27.381334 q 0,27.472002 -0.0907,27.744002 -0.544,1.994667 -2.26666,2.810667 -1.81334,0.816 -3.44534,0.181333 -0.72533,-0.181333 -1.54133,-0.997333 -0.816,-0.906667 -0.99734,-1.541334 0,-0.09067 -0.0907,-0.09067 -0.18134,-0.544 -0.18134,-13.962668 0,-8.341334 0,-14.325334 V 24.284904 h -4.26133 -4.17067 v 1.632 q 0,2.176 -0.272,2.901333 -0.72533,1.722667 -2.448,2.448 -0.544,0.272 -1.632,0.272 -1.088,0 -1.81333,-0.362666 -1.632,-0.906667 -2.176,-2.357334 -0.272,-0.816 -0.272,-7.253334 z"
			/>
		</g>
	</g>
</svg>
